<?xml version="1.0" encoding="iso-8859-1"?>
<!-- Generator: Adobe Illustrator 19.0.0, SVG Export Plug-In . SVG Version: 6.00 Build 0)  -->
<svg version="1.1" id="Capa_1" xmlns="http://www.w3.org/2000/svg" xmlns:xlink="http://www.w3.org/1999/xlink" x="0px" y="0px"
	 viewBox="0 0 512 512" style="enable-background:new 0 0 512 512;" xml:space="preserve">
<polygon style="fill:#D1EEFF;" points="130.624,150.667 195.544,329.916 441.017,340.736 501.897,140.89 121.759,130.982 "/>
<g>
	<path style="fill:#1AA8FF;" d="M424.07,353.772H202.453c-17.612-0.026-33.034-11.824-37.675-28.81L96.99,76.621
		c-1.577-5.853-6.974-9.855-13.036-9.647H13.036C5.84,66.974,0,61.134,0,53.938s5.84-13.036,13.036-13.036h71.308
		c17.612,0.026,33.034,11.824,37.675,28.81l13.036,49.408h337.9c21.601,0.039,39.083,17.573,39.044,39.174
		c0,3.911-0.6,7.796-1.76,11.537l-48.886,156.435C456.283,342.6,441.174,353.733,424.07,353.772z M142.747,145.192l47.191,172.861
		c1.577,5.853,6.974,9.855,13.036,9.647h221.617c5.918,0.274,11.263-3.481,13.036-9.125l48.886-156.435
		c2.164-6.87-1.643-14.183-8.513-16.361c-1.46-0.456-2.998-0.665-4.524-0.587L142.747,145.192z"/>
	<path style="fill:#1AA8FF;" d="M228.135,471.099c-25.199,0-45.627-20.428-45.627-45.627s20.428-45.627,45.627-45.627
		s45.627,20.428,45.627,45.627C273.762,450.671,253.334,471.099,228.135,471.099z M228.135,405.917
		c-10.794,0-19.554,8.76-19.554,19.554s8.76,19.554,19.554,19.554c10.794,0,19.554-8.76,19.554-19.554
		C247.689,414.665,238.929,405.917,228.135,405.917z"/>
	<path style="fill:#1AA8FF;" d="M384.57,471.099c-25.199,0-45.627-20.428-45.627-45.627s20.428-45.627,45.627-45.627
		c25.199,0,45.627,20.428,45.627,45.627C430.197,450.671,409.769,471.099,384.57,471.099z M384.57,405.917
		c-10.794,0-19.554,8.76-19.554,19.554s8.76,19.554,19.554,19.554s19.554-8.76,19.554-19.554
		C404.125,414.665,395.364,405.917,384.57,405.917z"/>
</g>
<g>
</g>
<g>
</g>
<g>
</g>
<g>
</g>
<g>
</g>
<g>
</g>
<g>
</g>
<g>
</g>
<g>
</g>
<g>
</g>
<g>
</g>
<g>
</g>
<g>
</g>
<g>
</g>
<g>
</g>
</svg>
