<?xml version="1.0" encoding="iso-8859-1"?>
<!-- Generator: Adobe Illustrator 19.0.0, SVG Export Plug-In . SVG Version: 6.00 Build 0)  -->
<svg version="1.1" id="Capa_1" xmlns="http://www.w3.org/2000/svg" xmlns:xlink="http://www.w3.org/1999/xlink" x="0px" y="0px"
	 viewBox="0 0 496 496" style="enable-background:new 0 0 496 496;" xml:space="preserve">
<path d="M316.8,209.6c39.2,60.8,22.4,141.6-38.4,180.8S136.8,412.8,97.6,352l37.6-25.6c25.6,39.2,78.4,50.4,117.6,24.8
	s50.4-78.4,24.8-117.6L316.8,209.6z"/>
<g>
	<path style="fill:#666666;" d="M278.4,390.4c-60.8,39.2-141.6,22.4-180.8-38.4l37.6-25.6c25.6,39.2,78.4,50.4,117.6,24.8
		s50.4-78.4,24.8-117.6l39.2-24.8"/>
	<path style="fill:#666666;" d="M404,154.4c-39.2-60-120-77.6-180.8-37.6c-60,39.2-77.6,120-37.6,180.8l38.4-24
		c-25.6-39.2-14.4-92,24.8-117.6s92-14.4,117.6,24.8L404,154.4z"/>
</g>
<path d="M184.8,296.8l38.4-24c-25.6-39.2-14.4-92,24.8-117.6s92-14.4,117.6,24.8l38.4-25.6c-39.2-60-120-77.6-180.8-37.6"/>
<path d="M0,248C0,111.2,111.2,0,248,0s248,111.2,248,248S384.8,496,248,496S0,384.8,0,248z M248,478.4
	c127.2,0,230.4-103.2,230.4-230.4S375.2,17.6,248,17.6S17.6,120.8,17.6,248S120.8,478.4,248,478.4z"/>
<path style="fill:#666666;" d="M208,475.2C100,456,17.6,361.6,17.6,248C17.6,120.8,120.8,17.6,248,17.6c17.6,0,34.4,2.4,51.2,5.6
	l3.2-16.8c-17.6-4-36-6.4-54.4-6.4C111.2,0,0,111.2,0,248c0,122.4,88,224,204.8,244L208,475.2z"/>
<g>
</g>
<g>
</g>
<g>
</g>
<g>
</g>
<g>
</g>
<g>
</g>
<g>
</g>
<g>
</g>
<g>
</g>
<g>
</g>
<g>
</g>
<g>
</g>
<g>
</g>
<g>
</g>
<g>
</g>
</svg>
