<?xml version="1.0"?>
<svg xmlns="http://www.w3.org/2000/svg" xmlns:xlink="http://www.w3.org/1999/xlink" version="1.1" id="Capa_1" x="0px" y="0px" width="512px" height="512px" viewBox="0 0 612 612" style="enable-background:new 0 0 612 612;" xml:space="preserve" class=""><g><g>
	<path d="M259.107,322.451c0,16.933-13.727,30.659-30.66,30.659c-16.933,0-30.658-13.727-30.658-30.659s13.726-30.659,30.658-30.659   C245.38,291.792,259.107,305.519,259.107,322.451z M383.554,291.792c-16.932,0-30.66,13.726-30.66,30.659   s13.729,30.659,30.66,30.659c16.934,0,30.658-13.727,30.658-30.659S400.487,291.792,383.554,291.792z M514.517,416.596v-3.492   c-3.514,10.198-7.734,19.885-12.273,29.303c0.842,5.773,2.4,13.831,5.02,23.043c12.6,19.488,48.158,44.316,72.537,50.712   c-13.145,5.583-28.979,7.882-44.379,5.525c14.107,17.751,33.988,33.869,62.039,43.459   c-65.568,59.097-173.604,60.411-249.119,14.516c-14.635,4.304-28.936,6.56-42.341,6.56c-13.405,0-27.707-2.256-42.34-6.56   c-75.517,45.896-183.551,44.581-249.119-14.516c28.613-9.781,48.68-26.366,62.835-44.538c-12.52,0.479-24.944-1.8-35.589-6.321   c17.862-4.686,41.716-19.281,58.174-34.413c5.759-15.225,8.539-28.836,9.796-37.468c-4.539-9.418-8.759-19.104-12.272-29.303v3.493   H60.407c-29.254,0-52.969-23.716-52.969-52.969v-58.266c0-20.131,11.231-37.637,27.769-46.599   c0.555-82.724,24.666-147.331,71.765-191.997C153.69,22.465,220.653,0,306,0c85.348,0,152.311,22.465,199.028,66.767   c47.1,44.665,71.209,109.271,71.766,191.997c16.537,8.962,27.768,26.467,27.768,46.598v58.265   c0,29.254-23.715,52.969-52.969,52.969H514.517z M492.454,322.646c0-13.63-0.697-26.436-1.729-38.845   c-23.898-21.863-67.617-38.353-122.746-44.168c8.746,7.841,16.256,18.297,20.273,33.226   c-32.055-23.431-99.236-30.687-121.551-55.793l0.022-0.002c-35.52-23.512-44.841-57.189-45.141-43.25   c-1.438,66.848-48.818,118.961-101.431,126.313c-0.333,7.352-0.606,14.773-0.606,22.519c0,28.256,4.614,54.006,12.458,77.214   c29.553,35.648,78.359,45.714,121.558,48.385c8.019-12.76,26.012-21.666,46.966-21.666c28.409,0,51.438,16.347,51.438,36.513   c0,20.167-23.029,36.514-51.438,36.514c-21.853,0-40.475-9.688-47.929-23.332c-30.191-1.755-63.38-6.9-92.96-20.869   c41.601,61.315,106.087,93.739,146.359,93.739C369.284,549.143,492.454,469.197,492.454,322.646z M524.524,252.394h20.381   C541.534,108.039,459.136,31.782,306,31.782c-153.136,0-235.532,76.257-238.903,220.612h20.379   c7.451-48.654,23.2-88.67,47.111-119.436C172.691,83.931,230.363,59.07,306,59.07c75.637,0,133.309,24.859,171.415,73.887   C501.325,163.724,517.073,203.739,524.524,252.394z" data-original="#000000" class="active-path" data-old_color="#595858" fill="#5A5A5A"/>
</g></g> </svg>
