<?xml version="1.0"?>
<svg xmlns="http://www.w3.org/2000/svg" xmlns:xlink="http://www.w3.org/1999/xlink" version="1.1" id="Capa_1" x="0px" y="0px" viewBox="0 0 495.173 495.173" style="enable-background:new 0 0 495.173 495.173;" xml:space="preserve" width="512px" height="512px" class=""><g><g>
	<path d="M399.515,116.245l-0.215,0.038l0.055-0.126l-40.608-17.12l-10.342,1.5   c-10.908-48.837-39.881-82.962-74.902-82.962c-4.117,0-8.121,0.624-12.063,1.535C248.778,6.95,232.963,0,214.577,0   c-53.331,0-79.22,71.002-79.587,134.161l-48.639,7.659l-4.29,325.306l65.682,28.047l265.369-41.099L399.515,116.245z    M314.884,105.818l-20.162,3.165c-0.766-20.373-4.44-38.863-10.625-54.625C296.78,61.203,308.73,79.827,314.884,105.818z    M261.124,114.299l-31.561,4.976c3.498-24.503,11.988-43.988,22.215-55.662C257.687,77.201,260.933,94.672,261.124,114.299z    M193.939,145.788l-56.73,8.117l-35.791-6.319l92.902-14.333c-0.176,3.464-0.421,6.881-0.421,10.449   C193.884,144.391,193.939,145.08,193.939,145.788z M168.992,128.81c2.125-50.904,21.334-94.98,45.569-94.98   c5.573,0,10.717,1.34,15.401,3.793C211.254,56.68,198.21,87.9,194.834,124.75L168.992,128.81z M215.265,195.161   c-11.084,0-20.078-8.99-20.078-20.09c0-11.092,8.994-20.082,20.078-20.082s20.079,8.99,20.079,20.082   C235.342,186.17,226.349,195.161,215.265,195.161z M227.788,140.919c0.061-4.478,0.306-8.803,0.689-13.036l88.198-13.836   c0.797,4.436,1.424,8.048,1.853,12.836L227.788,140.919z M344.202,175.079c-11.084,0-20.094-8.991-20.094-20.083   s9.01-20.075,20.094-20.075s20.07,8.983,20.07,20.075C364.273,166.087,355.286,175.079,344.202,175.079z M352.009,122.08   c-0.504-4.868-1.709-9.187-2.526-13.838l8.424-1.715l25.889,11.052L352.009,122.08z" data-original="#010002" class="active-path" data-old_color="#5D5D5E" fill="#5B5B5B"/>
</g></g> </svg>
