<?xml version="1.0" standalone="no"?><!DOCTYPE svg PUBLIC "-//W3C//DTD SVG 1.1//EN" "http://www.w3.org/Graphics/SVG/1.1/DTD/svg11.dtd"><svg t="1514864202020" class="icon" style="" viewBox="0 0 1417 1024" version="1.1" xmlns="http://www.w3.org/2000/svg" p-id="3005" xmlns:xlink="http://www.w3.org/1999/xlink" width="88.5625" height="64"><defs><style type="text/css"></style></defs><path d="M1350.808511 108.93617 975.588766 108.93617 915.06383 0 501.106383 0l-60.524936 108.93617L65.361702 108.93617C29.260255 108.93617 0 138.196426 0 174.297872l0 784.340426c0 36.101447 29.260255 65.361702 65.361702 65.361702l1285.446809 0c36.101447 0 65.361702-29.260255 65.361702-65.361702L1416.170213 174.297872C1416.170213 138.196426 1386.909957 108.93617 1350.808511 108.93617zM718.978723 893.276596c-180.485447 0-326.808511-146.323064-326.808511-326.808511s146.323064-326.808511 326.808511-326.808511 326.808511 146.323064 326.808511 326.808511S899.46417 893.276596 718.978723 893.276596zM1056.680851 326.808511c-30.08817 0-54.468085-24.379915-54.468085-54.468085s24.379915-54.468085 54.468085-54.468085 54.468085 24.379915 54.468085 54.468085S1086.769021 326.808511 1056.680851 326.808511z" p-id="3006" fill="#858e99"></path><path d="M718.978723 566.468085m-261.446809 0a12 12 0 1 0 522.893617 0 12 12 0 1 0-522.893617 0Z" p-id="3007" fill="#858e99"></path><path d="M228.765957 0l108.93617 0C355.763745 0 370.382979 14.619234 370.382979 32.680851S355.763745 65.361702 337.702128 65.361702l-108.93617 0C210.70434 65.361702 196.085106 50.742468 196.085106 32.680851S210.70434 0 228.765957 0z" p-id="3008" fill="#858e99"></path></svg>