<?xml version="1.0"?>
<svg xmlns="http://www.w3.org/2000/svg" xmlns:xlink="http://www.w3.org/1999/xlink" version="1.1" id="Capa_1" x="0px" y="0px" viewBox="0 0 59.124 59.124" style="enable-background:new 0 0 59.124 59.124;" xml:space="preserve" width="512px" height="512px"><g><path d="M58.746,16.141l0.353-0.347l-0.021-0.966L41.133,0v9.108c-0.001,0-0.003,0-0.004,0c-0.389,0-0.773,0.007-1.181,0.021  c-7.897,0.285-14.785,4.553-18.31,10.994h-11.04L0.565,35.155l-0.432,0.022v0.782l-0.108,0.253l0.108,0.159v19.369  c0,1.866,1.519,3.384,3.385,3.384h51.23c1.866,0,3.385-1.518,3.385-3.384V36.353l0.111-0.174l-0.126-0.295l-0.038-0.76h-0.42  l-7.639-11.471L58.746,16.141z M40.021,11.128c0.382-0.014,0.743-0.021,1.108-0.021c0.317,0,0.636,0.005,0.974,0.015l1.03,0.031  V4.247l13.453,11.115l-7.682,6.614l0,0l-5.771,4.968v-6.354l-0.813-0.154c-0.136-0.027-12.777-2.284-21.097,7.611  c0.095-0.93,0.281-2.036,0.628-3.249c0.002-0.006,0.004-0.011,0.006-0.017c0.152-0.529,0.334-1.061,0.545-1.592  c0.002-0.005,0.004-0.009,0.006-0.014c0.213-0.534,0.453-1.067,0.722-1.596C26.232,15.472,32.639,11.394,40.021,11.128z   M56.133,55.739c0,0.763-0.621,1.384-1.385,1.384H3.518c-0.764,0-1.385-0.621-1.385-1.384V37.124h15v7h24v-7h15V55.739z   M55.276,35.124H39.133v7h-20v-7H2.99l8.678-13h9.007c-0.027,0.066-0.049,0.132-0.076,0.198c-0.079,0.197-0.156,0.394-0.228,0.594  c-0.163,0.444-0.315,0.888-0.442,1.332c-1.139,3.977-0.728,6.9-0.709,7.023l0.393,2.659l1.44-2.269  c6.422-10.11,17.044-9.719,20.08-9.375v9.02v0l4.874-4.196l2.489-2.143L55.276,35.124z" data-original="#000000" class="active-path" data-old_color="#000FFF" fill="#1AA8FF"/></g> </svg>
