<?xml version="1.0" standalone="no"?><!DOCTYPE svg PUBLIC "-//W3C//DTD SVG 1.1//EN" "http://www.w3.org/Graphics/SVG/1.1/DTD/svg11.dtd"><svg t="1514534348170" class="icon" style="" viewBox="0 0 1024 1024" version="1.1" xmlns="http://www.w3.org/2000/svg" p-id="2137" xmlns:xlink="http://www.w3.org/1999/xlink" width="64" height="64"><defs><style type="text/css"></style></defs><path d="M512 174.30895499c8.142447 0 15.950274 3.234671 21.707394 8.99179201l255.82655 255.82655c11.988032 11.989055 11.988032 31.425733 0 43.414789-11.989055 11.990079-31.426757 11.990079-43.415812 1e-8l-234.118132-234.118132-234.11915501 234.11813199c-11.988032 11.990079-31.426757 11.990079-43.41478899 0-11.989055-11.989055-11.989055-31.425733 0-43.414789l255.82655-255.82655C496.049726 177.543625 503.85857601 174.308955 512 174.30895499z" p-id="2138" fill="#fff"></path><path d="M512 174.30895499c16.954137 0 30.699186 13.745049 30.699186 30.69918601l0 613.983719c0 16.954137-13.745049 30.699186-30.699186 30.699186s-30.699186-13.745049-30.699186-30.699186l0-613.983719C481.300814 188.054003 495.045863 174.308955 512 174.30895499z" p-id="2139" fill="#fff"></path></svg>
