<?xml version="1.0" standalone="no"?><!DOCTYPE svg PUBLIC "-//W3C//DTD SVG 1.1//EN" "http://www.w3.org/Graphics/SVG/1.1/DTD/svg11.dtd"><svg t="1514864272468" class="icon" style="" viewBox="0 0 1024 1024" version="1.1" xmlns="http://www.w3.org/2000/svg" p-id="4979" xmlns:xlink="http://www.w3.org/1999/xlink" width="64" height="64"><defs><style type="text/css"></style></defs><path d="M512.268258 66.20033c-246.21268 0-445.809909 199.598253-445.809909 445.79967 0 246.2178 199.598253 445.79967 445.809909 445.79967s445.810933-199.580847 445.810933-445.79967c-0.001024-246.201417-199.598253-445.79967-445.810933-445.79967zM233.645512 372.691187c0-46.174156 37.419937-83.594093 83.58795-83.594094 46.157774 0 83.58795 37.419937 83.58795 83.594094 0 46.157774-37.4312 83.594093-83.58795 83.594093-46.168013 0-83.58795-37.436319-83.58795-83.594093z m278.622746 417.936679c-123.10378 0-222.902907-99.787864-222.902907-222.896764h445.80479c0 123.1089-99.799126 222.896764-222.901883 222.896764z m195.033772-334.342586c-46.157774 0-83.58795-37.436319-83.58795-83.594093 0-46.174156 37.4312-83.594093 83.58795-83.594094 46.169037 0 83.58795 37.419937 83.58795 83.594094 0.001024 46.157774-37.418913 83.594093-83.58795 83.594093z" fill="#858e99" p-id="4980"></path></svg>